<svg width="30" height="29" viewBox="0 0 30 29" fill="none" xmlns="http://www.w3.org/2000/svg">
<rect x="29.5" y="28.5" width="29" height="22" rx="11" transform="rotate(180 29.5 28.5)" fill="white" stroke="black"/>
<path d="M4.5 4.5C4.5 4.05624 4.71774 3.58589 5.21204 3.1078C5.70782 2.62828 6.45142 2.17341 7.41114 1.78079C9.32814 0.996566 12.011 0.5 15 0.5C17.989 0.5 20.6719 0.996566 22.5889 1.78079C23.5486 2.17341 24.2922 2.62828 24.788 3.1078C25.2823 3.58589 25.5 4.05624 25.5 4.5C25.5 4.94376 25.2823 5.41411 24.788 5.8922C24.2922 6.37172 23.5486 6.82659 22.5889 7.21921C20.6719 8.00343 17.989 8.5 15 8.5C12.011 8.5 9.32814 8.00343 7.41114 7.21921C6.45142 6.82659 5.70782 6.37172 5.21204 5.8922C4.71774 5.41411 4.5 4.94376 4.5 4.5Z" fill="white" stroke="black"/>
</svg>
