<svg width="442" height="333" viewBox="0 0 442 333" fill="none" xmlns="http://www.w3.org/2000/svg">
<rect x="0.5" y="0.5" width="441" height="332" fill="white" stroke="black"/>
<path d="M100.109 158.455V173H98.3475V160.017H91.0179V173H89.2566V158.455H100.109ZM115.934 165.727C115.934 167.261 115.657 168.587 115.104 169.705C114.55 170.822 113.79 171.684 112.824 172.29C111.858 172.896 110.755 173.199 109.514 173.199C108.273 173.199 107.17 172.896 106.204 172.29C105.238 171.684 104.479 170.822 103.925 169.705C103.371 168.587 103.094 167.261 103.094 165.727C103.094 164.193 103.371 162.867 103.925 161.75C104.479 160.633 105.238 159.771 106.204 159.165C107.17 158.559 108.273 158.256 109.514 158.256C110.755 158.256 111.858 158.559 112.824 159.165C113.79 159.771 114.55 160.633 115.104 161.75C115.657 162.867 115.934 164.193 115.934 165.727ZM114.23 165.727C114.23 164.468 114.019 163.405 113.598 162.538C113.181 161.672 112.615 161.016 111.9 160.571C111.19 160.126 110.395 159.903 109.514 159.903C108.633 159.903 107.836 160.126 107.121 160.571C106.41 161.016 105.845 161.672 105.423 162.538C105.006 163.405 104.798 164.468 104.798 165.727C104.798 166.987 105.006 168.05 105.423 168.916C105.845 169.783 106.41 170.438 107.121 170.884C107.836 171.329 108.633 171.551 109.514 171.551C110.395 171.551 111.19 171.329 111.9 170.884C112.615 170.438 113.181 169.783 113.598 168.916C114.019 168.05 114.23 166.987 114.23 165.727ZM117.646 176.523V171.438H118.584C118.906 171.144 119.209 170.73 119.493 170.195C119.782 169.655 120.025 168.935 120.224 168.036C120.428 167.131 120.563 165.983 120.629 164.591L120.942 158.455H129.578V171.438H131.254V176.494H129.578V173H119.322V176.523H117.646ZM120.686 171.438H127.902V160.017H122.532L122.305 164.591C122.248 165.652 122.149 166.613 122.007 167.474C121.865 168.331 121.683 169.091 121.46 169.754C121.238 170.412 120.979 170.973 120.686 171.438ZM145.62 163H143.859C143.755 162.493 143.572 162.048 143.312 161.665C143.056 161.281 142.744 160.959 142.374 160.699C142.01 160.434 141.605 160.235 141.16 160.102C140.715 159.97 140.251 159.903 139.768 159.903C138.887 159.903 138.089 160.126 137.374 160.571C136.664 161.016 136.098 161.672 135.677 162.538C135.26 163.405 135.052 164.468 135.052 165.727C135.052 166.987 135.26 168.05 135.677 168.916C136.098 169.783 136.664 170.438 137.374 170.884C138.089 171.329 138.887 171.551 139.768 171.551C140.251 171.551 140.715 171.485 141.16 171.352C141.605 171.22 142.01 171.023 142.374 170.763C142.744 170.498 143.056 170.173 143.312 169.79C143.572 169.402 143.755 168.956 143.859 168.455H145.62C145.488 169.198 145.246 169.863 144.896 170.45C144.545 171.037 144.11 171.537 143.589 171.949C143.068 172.356 142.483 172.666 141.835 172.879C141.191 173.092 140.502 173.199 139.768 173.199C138.527 173.199 137.424 172.896 136.458 172.29C135.492 171.684 134.732 170.822 134.178 169.705C133.624 168.587 133.347 167.261 133.347 165.727C133.347 164.193 133.624 162.867 134.178 161.75C134.732 160.633 135.492 159.771 136.458 159.165C137.424 158.559 138.527 158.256 139.768 158.256C140.502 158.256 141.191 158.362 141.835 158.575C142.483 158.788 143.068 159.101 143.589 159.513C144.11 159.92 144.545 160.417 144.896 161.004C145.246 161.587 145.488 162.252 145.62 163ZM160.739 165.727C160.739 167.261 160.462 168.587 159.908 169.705C159.354 170.822 158.594 171.684 157.628 172.29C156.662 172.896 155.559 173.199 154.319 173.199C153.078 173.199 151.975 172.896 151.009 172.29C150.043 171.684 149.283 170.822 148.729 169.705C148.175 168.587 147.898 167.261 147.898 165.727C147.898 164.193 148.175 162.867 148.729 161.75C149.283 160.633 150.043 159.771 151.009 159.165C151.975 158.559 153.078 158.256 154.319 158.256C155.559 158.256 156.662 158.559 157.628 159.165C158.594 159.771 159.354 160.633 159.908 161.75C160.462 162.867 160.739 164.193 160.739 165.727ZM159.035 165.727C159.035 164.468 158.824 163.405 158.403 162.538C157.986 161.672 157.42 161.016 156.705 160.571C155.995 160.126 155.199 159.903 154.319 159.903C153.438 159.903 152.64 160.126 151.925 160.571C151.215 161.016 150.649 161.672 150.228 162.538C149.811 163.405 149.603 164.468 149.603 165.727C149.603 166.987 149.811 168.05 150.228 168.916C150.649 169.783 151.215 170.438 151.925 170.884C152.64 171.329 153.438 171.551 154.319 171.551C155.199 171.551 155.995 171.329 156.705 170.884C157.42 170.438 157.986 169.783 158.403 168.916C158.824 168.05 159.035 166.987 159.035 165.727ZM163.701 173V158.455H172.479V160.017H165.462V164.562H169.155C170.197 164.562 171.075 164.733 171.79 165.074C172.51 165.415 173.055 165.895 173.424 166.516C173.798 167.136 173.985 167.867 173.985 168.71C173.985 169.553 173.798 170.296 173.424 170.94C173.055 171.584 172.51 172.089 171.79 172.453C171.075 172.818 170.197 173 169.155 173H163.701ZM165.462 171.466H169.155C169.818 171.466 170.379 171.333 170.839 171.068C171.303 170.798 171.653 170.453 171.89 170.031C172.131 169.605 172.252 169.155 172.252 168.682C172.252 167.986 171.984 167.387 171.449 166.885C170.914 166.378 170.15 166.125 169.155 166.125H165.462V171.466ZM176.884 173V158.455H178.646V164.932H186.401V158.455H188.163V173H186.401V166.494H178.646V173H176.884ZM203.962 165.727C203.962 167.261 203.685 168.587 203.131 169.705C202.577 170.822 201.817 171.684 200.851 172.29C199.885 172.896 198.782 173.199 197.541 173.199C196.301 173.199 195.198 172.896 194.232 172.29C193.266 171.684 192.506 170.822 191.952 169.705C191.398 168.587 191.121 167.261 191.121 165.727C191.121 164.193 191.398 162.867 191.952 161.75C192.506 160.633 193.266 159.771 194.232 159.165C195.198 158.559 196.301 158.256 197.541 158.256C198.782 158.256 199.885 158.559 200.851 159.165C201.817 159.771 202.577 160.633 203.131 161.75C203.685 162.867 203.962 164.193 203.962 165.727ZM202.257 165.727C202.257 164.468 202.047 163.405 201.625 162.538C201.209 161.672 200.643 161.016 199.928 160.571C199.218 160.126 198.422 159.903 197.541 159.903C196.661 159.903 195.863 160.126 195.148 160.571C194.438 161.016 193.872 161.672 193.45 162.538C193.034 163.405 192.825 164.468 192.825 165.727C192.825 166.987 193.034 168.05 193.45 168.916C193.872 169.783 194.438 170.438 195.148 170.884C195.863 171.329 196.661 171.551 197.541 171.551C198.422 171.551 199.218 171.329 199.928 170.884C200.643 170.438 201.209 169.783 201.625 168.916C202.047 168.05 202.257 166.987 202.257 165.727ZM206.923 173V158.455H215.702V160.017H208.685V164.932H215.247V166.494H208.685V171.438H215.816V173H206.923ZM235.382 158.455V173H233.621V160.017H226.291V173H224.53V158.455H235.382ZM251.208 165.727C251.208 167.261 250.931 168.587 250.377 169.705C249.823 170.822 249.063 171.684 248.097 172.29C247.131 172.896 246.028 173.199 244.787 173.199C243.547 173.199 242.444 172.896 241.478 172.29C240.512 171.684 239.752 170.822 239.198 169.705C238.644 168.587 238.367 167.261 238.367 165.727C238.367 164.193 238.644 162.867 239.198 161.75C239.752 160.633 240.512 159.771 241.478 159.165C242.444 158.559 243.547 158.256 244.787 158.256C246.028 158.256 247.131 158.559 248.097 159.165C249.063 159.771 249.823 160.633 250.377 161.75C250.931 162.867 251.208 164.193 251.208 165.727ZM249.503 165.727C249.503 164.468 249.293 163.405 248.871 162.538C248.455 161.672 247.889 161.016 247.174 160.571C246.464 160.126 245.668 159.903 244.787 159.903C243.907 159.903 243.109 160.126 242.394 160.571C241.684 161.016 241.118 161.672 240.697 162.538C240.28 163.405 240.072 164.468 240.072 165.727C240.072 166.987 240.28 168.05 240.697 168.916C241.118 169.783 241.684 170.438 242.394 170.884C243.109 171.329 243.907 171.551 244.787 171.551C245.668 171.551 246.464 171.329 247.174 170.884C247.889 170.438 248.455 169.783 248.871 168.916C249.293 168.05 249.503 166.987 249.503 165.727ZM254.17 158.455H256.272L261.215 170.528H261.385L266.329 158.455H268.431V173H266.783V161.949H266.641L262.096 173H260.505L255.959 161.949H255.817V173H254.17V158.455ZM271.963 173V158.455H280.741V160.017H273.724V164.932H280.286V166.494H273.724V171.438H280.855V173H271.963ZM300.847 171.438L300.649 176.438H298.916V173H297.524V171.438H300.847ZM283.916 158.455H285.677V171.381H290.791V158.455H292.552V171.381H297.666V158.455H299.427V173H283.916V158.455ZM303.525 173V158.455H312.303V160.017H305.286V164.932H311.849V166.494H305.286V171.438H312.417V173H303.525ZM315.478 173V158.455H317.24V164.932H324.995V158.455H326.757V173H324.995V166.494H317.24V173H315.478ZM330.283 158.455H332.016V169.903H332.158L340.112 158.455H341.817V173H340.056V161.58H339.914L331.987 173H330.283V158.455ZM345.341 173V158.455H354.12V160.017H347.103V164.932H353.665V166.494H347.103V171.438H354.233V173H345.341Z" fill="black"/>
<rect y="29" width="3" height="79" fill="white"/>
<rect x="2.25" y="108.25" width="68.5" height="2.5" fill="white" stroke="black" stroke-width="0.5"/>
<path d="M70 108C67.792 49.1373 23.08 30.8072 1 29" stroke="black" stroke-width="0.5"/>
</svg>
